<?xml version="1.0" encoding="UTF-8"?>
<svg width="912px" height="32px" viewBox="0 0 912 32" version="1.1" xmlns="http://www.w3.org/2000/svg" xmlns:xlink="http://www.w3.org/1999/xlink">
    <!-- Generator: Sketch 52.1 (67048) - http://www.bohemiancoding.com/sketch -->
    <title>MainToolbar 2</title>
    <desc>Created with Sketch.</desc>
    <g id="Page-1" stroke="none" stroke-width="1" fill="none" fill-rule="evenodd">
        <g id="To-do" transform="translate(-528.000000, -115.000000)">
            <g id="MainToolbar-2" transform="translate(528.000000, 115.000000)">
                <g id="MainToolbar">
                    <rect id="Rectangle-169-Copy-2" stroke="#DDDDDD" stroke-width="0.67961165" fill="#F5F5F4" x="0.339805825" y="0.339805825" width="911.377192" height="30.6495668"></rect>
                    <g id="Font" transform="translate(14.223108, 5.221530)">
                        <rect id="Rectangle-176" stroke="#DDDDDD" stroke-width="0.67961165" fill="#FFFFFF" x="0.339805825" y="0.339805825" width="66.8801515" height="20.2065073"></rect>
                        <text id="Calibri-(Body)" font-family=".SFNSText, .SF NS Text" font-size="8.15533981" font-weight="normal" fill="#919191">
                            <tspan x="5.33366552" y="15.6446562">Calibri (Body)</tspan>
                        </text>
                    </g>
                    <g id="FontSize" transform="translate(92.450202, 5.221530)">
                        <rect id="Rectangle-176-Copy-2" stroke="#DDDDDD" stroke-width="0.67961165" fill="#FFFFFF" x="0.339805825" y="0.339805825" width="29.5444929" height="20.2065073"></rect>
                        <text id="11" font-family=".SFNSText, .SF NS Text" font-size="6.7961165" font-weight="normal" fill="#919191">
                            <tspan x="5.33366552" y="13.3415297">11</tspan>
                        </text>
                    </g>
                    <g id="Formatting" transform="translate(138.675303, 4.662838)">
                        <text id="B" font-family=".SFNSText, .SF NS Text" font-size="12.2330097" font-weight="normal" fill="#000000">
                            <tspan x="0" y="12.9181818">B</tspan>
                        </text>
                        <text id="I" font-family=".SFNSText, .SF NS Text" font-size="12.2330097" font-weight="normal" fill="#000000">
                            <tspan x="32.0019931" y="12.9181818">I</tspan>
                        </text>
                        <g id="U-+-Line" transform="translate(60.448209, 1.467783)">
                            <text id="U" font-family=".SFNSText, .SF NS Text" font-size="10.8737864" font-weight="normal" fill="#000000">
                                <tspan x="0.888944253" y="11.9482596">U</tspan>
                            </text>
                            <path d="M1.77788851,16.5636553 L8.88944253,16.5636553" id="Line" stroke="#000000" stroke-width="0.67961165" stroke-linecap="square"></path>
                        </g>
                        <g id="abc-+-Line-Copy-3" transform="translate(87.116537, 6.221530)">
                            <text id="abc" font-family=".SFNSText, .SF NS Text" font-size="8.15533981" font-weight="normal" fill="#000000">
                                <tspan x="0" y="8.27272727">abc</tspan>
                            </text>
                            <path d="M0,7.06309554 L16.0009965,7.06309554" id="Line-Copy-3" stroke="#5B5B5B" stroke-width="0.67961165" stroke-linecap="square"></path>
                        </g>
                        <g id="ab-+-Line-Copy-5-+-Shape-+-Shape" transform="translate(119.118530, 0.000000)">
                            <text id="ab" font-family=".SFNSText, .SF NS Text" font-size="8.15533981" font-weight="normal" fill="#000000">
                                <tspan x="0" y="8.21818182">ab</tspan>
                            </text>
                            <path d="M0.888944253,17.0935359 L15.1120523,17.0935359" id="Line-Copy-5" stroke="#F0F778" stroke-width="1.3592233" stroke-linecap="square"></path>
                            <g id="Shape-+-Shape" transform="translate(1.777889, 4.039712)" fill-rule="nonzero">
                                <path d="M14.0395347,2.02580342 C14.1707006,1.89739518 14.1647175,1.68334697 14.0305046,1.55195576 L12.637823,0.188554153 C12.5016699,0.05526356 12.2837064,0.052537845 12.1537992,0.179713878 L0.183573351,11.8982759 C0.0524074561,12.0266841 0.0583905614,12.2407324 0.192603477,12.3721236 L1.58528503,13.7355252 C1.72143812,13.8688158 1.93940166,13.8715415 2.06930888,13.7443654 L14.0395347,2.02580342 Z" id="Shape" fill="#000000"></path>
                                <polygon id="Shape" fill="#FFFFFF" points="3.14354332 9.99843991 3.99208101 10.8291378 4.55777281 11.3829364 5.68915641 10.2753392 5.12346461 9.72154061 4.27492691 8.8908427 3.70923512 8.33704409 2.57785152 9.44464131"></polygon>
                            </g>
                        </g>
                        <g id="Underline" transform="translate(151.120523, 0.454545)">
                            <path d="M0.888944253,16.6389905 L15.1120523,16.6389905" id="Line" stroke="#D0021B" stroke-width="1.3592233" stroke-linecap="square"></path>
                            <text id="A" font-family=".SFNSText, .SF NS Text" font-size="12.2330097" font-weight="normal" fill="#000000">
                                <tspan x="1.77788851" y="12.4636364">A</tspan>
                            </text>
                        </g>
                        <g id="Erase" transform="translate(184.900405, 0.454545)">
                            <text id="A-" font-family=".SFNSText, .SF NS Text" font-size="12.2330097" font-weight="normal" fill="#000000">
                                <tspan x="0" y="12.4636364">A</tspan>
                            </text>
                            <g id="Line-+-Line-Copy-4" transform="translate(4.000249, 8.806696)">
                                <path d="M9.10051066,3.68765044 L9.71483958,3.08623727 C9.98307516,2.82364111 9.98153312,2.39637902 9.71226625,2.13277325 L8.48875508,0.934985358 C8.21909829,0.670997875 7.78840482,0.664628106 7.5148148,0.932466131 L6.90048588,1.5338793 L1.56682037,6.75540905 L0.952491452,7.35682222 C0.684255875,7.61941838 0.685797908,8.04668047 0.95506478,8.31028624 L2.17857595,9.50807413 C2.44823274,9.77206162 2.87892621,9.77843138 3.15251623,9.51059336 L3.76684515,8.90918019 L9.10051066,3.68765044 Z" id="Shape" fill="#EA95AE" fill-rule="nonzero"></path>
                                <path d="M1.77788851,6.96203966 L3.55577701,8.70254958" id="Line-Copy-4" stroke="#FFFFFF" stroke-width="0.67961165" stroke-linecap="square"></path>
                            </g>
                        </g>
                        <polyline id="Path-25323-Copy-3" stroke="#000000" stroke-width="1.3592233" stroke-linecap="square" stroke-linejoin="round" points="223.133538 8.18857842 220.073526 11.1880324 217.053159 8.18857842"></polyline>
                    </g>
                    <path d="M373.801058,0.870254958 L373.801058,30.4589235" id="Line" stroke="#DCE0E2" stroke-width="0.67961165" stroke-linecap="square"></path>
                    <g id="Paragraph" transform="translate(385.801806, 6.962040)">
                        <path d="M70.989497,10.8259767 L61.7245172,10.8259767 L61.7245172,12.2964491 L70.989497,12.2964491 L70.989497,10.8259767 L70.989497,10.8259767 Z M70.989497,4.94408691 L61.7245172,4.94408691 L61.7245172,6.41455935 L70.989497,6.41455935 L70.989497,4.94408691 L70.989497,4.94408691 Z M61.7245172,9.35550424 L75.6219869,9.35550424 L75.6219869,7.88503179 L61.7245172,7.88503179 L61.7245172,9.35550424 L61.7245172,9.35550424 Z M61.7245172,15.237394 L75.6219869,15.237394 L75.6219869,13.7669216 L61.7245172,13.7669216 L61.7245172,15.237394 L61.7245172,15.237394 Z M61.7245172,2.00314202 L61.7245172,3.47361446 L75.6219869,3.47361446 L75.6219869,2.00314202 L61.7245172,2.00314202 L61.7245172,2.00314202 Z" id="Shape" fill="#000000"></path>
                        <g id="Shape-Copy-6-+-Shape-+-Shape-Copy-7" transform="translate(90.672314, 0.000000)">
                            <path d="M12.8706556,10.1930267 L6.60997359,10.1930267 L6.60997359,11.1866781 L12.8706556,11.1866781 L12.8706556,10.1930267 L12.8706556,10.1930267 Z M12.8706556,6.21842102 L6.60997359,6.21842102 L6.60997359,7.21207244 L12.8706556,7.21207244 L12.8706556,6.21842102 L12.8706556,6.21842102 Z M6.60997359,9.19937529 L16.0009965,9.19937529 L16.0009965,8.20572386 L6.60997359,8.20572386 L6.60997359,9.19937529 L6.60997359,9.19937529 Z M6.60997359,13.173981 L16.0009965,13.173981 L16.0009965,12.1803296 L6.60997359,12.1803296 L6.60997359,13.173981 L6.60997359,13.173981 Z M6.60997359,4.23111817 L6.60997359,5.22476959 L16.0009965,5.22476959 L16.0009965,4.23111817 L6.60997359,4.23111817 L6.60997359,4.23111817 Z" id="Shape-Copy-6" fill="#000000"></path>
                            <g id="Shape-+-Shape-Copy-7" fill="#6784A5" fill-rule="nonzero">
                                <path d="M3.11602048,2.2962056 L1.53849728,3.98153782 L0.888944253,3.43636372 L3.11602048,0.993650878 L3.11602048,0.961402266 L3.14542226,0.961402266 L3.24661695,0.85040941 L3.56562082,0.500517993 L3.89106321,0.844907734 L4.00114854,0.961402266 L4.00496473,0.961402266 L4.00496473,0.965440639 L6.22260977,3.31219763 L5.58327028,3.86837509 L4.00496473,2.26281114 L4.00496473,7.05318697 L3.11602048,7.05318697 L3.11602048,2.2962056 Z" id="Shape"></path>
                                <polygon id="Shape-Copy-7" points="3.10658929 13.9199895 1.52828374 12.3144255 0.888944253 12.870603 3.10658929 15.21736 3.10658929 15.2213984 3.11040548 15.2213984 3.22049081 15.3378929 3.5459332 15.6822826 3.86493708 15.3323912 3.96613176 15.2213984 3.99553354 15.2213984 3.99553354 15.1891497 6.22260977 12.7464369 5.57305674 12.2012628 3.99553354 13.886595 3.99553354 9.12961366 3.10658929 9.12961366"></polygon>
                            </g>
                        </g>
                        <g id="Numerals" transform="translate(30.224105, 2.467783)">
                            <text id="1" font-family=".SFNSText, .SF NS Text" font-size="2.7184466" font-weight="normal" fill="#597FA8">
                                <tspan x="0" y="3.95272727">1</tspan>
                                <tspan x="0" y="7.95272727">2</tspan>
                                <tspan x="0" y="11.9527273">3</tspan>
                            </text>
                            <polygon id="Shape" fill="#000000" fill-rule="nonzero" points="4.44472126 1.88349215 13.3341638 1.88349215 14.000872 1.88349215 14.000872 0.578109709 13.3341638 0.578109709 4.44472126 0.578109709 3.77801307 0.578109709 3.77801307 1.88349215"></polygon>
                            <polygon id="Shape" fill="#000000" fill-rule="nonzero" points="4.21282276 7.54014937 10.0102853 7.54014937 10.445095 7.54014937 10.445095 6.23476693 10.0102853 6.23476693 4.21282276 6.23476693 3.77801307 6.23476693 3.77801307 7.54014937"></polygon>
                            <polygon id="Shape" fill="#000000" fill-rule="nonzero" points="4.44472126 12.7616791 13.3341638 12.7616791 14.000872 12.7616791 14.000872 11.4562967 13.3341638 11.4562967 4.44472126 11.4562967 3.77801307 11.4562967 3.77801307 12.7616791"></polygon>
                        </g>
                        <g id="Bullets" transform="translate(0.000000, 1.740510)">
                            <g id="Shape-+-Oval-22">
                                <polygon id="Shape" fill="#000000" fill-rule="nonzero" points="7.11155402 2.17563739 16.0009965 2.17563739 16.6677047 2.17563739 16.6677047 0.870254958 16.0009965 0.870254958 7.11155402 0.870254958 6.44484583 0.870254958 6.44484583 2.17563739"></polygon>
                                <ellipse id="Oval-22" fill="#597FA8" cx="1.77788851" cy="1.74050992" rx="1.77788851" ry="1.74050992"></ellipse>
                            </g>
                            <g id="Shape-+-Oval-22-Copy-2" transform="translate(0.000000, 5.221530)">
                                <polygon id="Shape" fill="#000000" fill-rule="nonzero" points="6.87965552 2.61076487 12.677118 2.61076487 13.1119277 2.61076487 13.1119277 1.30538244 12.677118 1.30538244 6.87965552 1.30538244 6.44484583 1.30538244 6.44484583 2.61076487"></polygon>
                                <ellipse id="Oval-22-Copy-2" fill="#597FA8" cx="1.77788851" cy="2.17563739" rx="1.77788851" ry="1.74050992"></ellipse>
                            </g>
                            <g id="Shape-+-Oval-22-Copy-3" transform="translate(0.000000, 10.443059)">
                                <polygon id="Shape" fill="#000000" fill-rule="nonzero" points="7.11155402 2.61076487 16.0009965 2.61076487 16.6677047 2.61076487 16.6677047 1.30538244 16.0009965 1.30538244 7.11155402 1.30538244 6.44484583 1.30538244 6.44484583 2.61076487"></polygon>
                                <ellipse id="Oval-22-Copy-3" fill="#597FA8" cx="1.77788851" cy="2.17563739" rx="1.77788851" ry="1.74050992"></ellipse>
                            </g>
                        </g>
                    </g>
                    <polyline id="Path-25323-Copy-2" stroke="#000000" stroke-width="1.3592233" stroke-linecap="square" stroke-linejoin="round" points="518.26303 12.8514164 515.203017 15.8508704 512.182651 12.8514164"></polyline>
                    <g id="FormatStyle" transform="translate(529.810775, 0.000000)">
                        <rect id="Rectangle-178" fill="#D8D8D8" x="0" y="0" width="103.117533" height="31.3291785"></rect>
                        <text id="Normal" font-family=".SFNSText, .SF NS Text" font-size="6.7961165" font-weight="normal" fill="#0A0A0A">
                            <tspan x="12.4452195" y="18.5630595">Normal</tspan>
                        </text>
                    </g>
                    <text id="No-Spacing" font-family=".SFNSText, .SF NS Text" font-size="6.7961165" font-weight="normal" fill="#0A0A0A">
                        <tspan x="642.706695" y="18.5630595">No Spacing</tspan>
                    </text>
                    <text id="Heading-1" font-family=".SFNSText, .SF NS Text" font-size="10.8737864" font-weight="normal" fill="#5F85A9">
                        <tspan x="744.046339" y="18.0415297">Heading 1</tspan>
                    </text>
                    <path d="M836.05207,6.0917847 L836.05207,25.2373938" id="Line" stroke="#DBDBDB" stroke-width="0.67961165" stroke-linecap="square"></path>
                    <polyline id="Path-25323-Copy" stroke="#000000" stroke-width="1.3592233" stroke-linecap="square" stroke-linejoin="round" points="854.283958 12.8514164 851.223945 15.8508704 848.203579 12.8514164"></polyline>
                    <path d="M868.054063,0.870254958 L868.054063,30.4589235" id="Line" stroke="#DEDEDE" stroke-width="0.67961165" stroke-linecap="square"></path>
                    <g id="Research" transform="translate(875.610089, 8.702550)" fill="#000000">
                        <path d="M6.86460335,8.55412807 C6.86460335,8.35884668 6.90719453,8.16758186 6.98710183,8.01112723 C7.08850008,7.82598288 7.23522473,7.72422999 7.400119,7.72422999 L7.82564001,7.72422999 L7.82564001,6.26564443 C7.80883799,6.26679202 7.7910591,6.26832214 7.77738303,6.26832214 L1.7114619,6.26832214 L1.01398257,12.4727618 L7.69239606,12.4727618 C7.7429975,12.4727618 7.78656554,12.4765871 7.82564001,12.4821338 L7.82564001,9.38421741 L7.400119,9.38421741 C7.094752,9.38421741 6.86460335,9.02731725 6.86460335,8.55412807 L6.86460335,8.55412807 Z" id="Shape"></path>
                        <path d="M16.692224,12.4727618 L16.1178292,6.26832214 L16.1172431,6.26832214 L10.0269004,6.26832214 L10.0269004,7.72422999 L10.6139944,7.72422999 C10.9193614,7.72422999 11.1497054,8.08093889 11.1497054,8.55412807 C11.1497054,9.02750851 10.9193614,9.38440868 10.6139944,9.38440868 L10.0269004,9.38440868 L10.0269004,12.4727618 L16.692224,12.4727618 L16.692224,12.4727618 Z" id="Shape"></path>
                        <path d="M16.9112364,12.6640266 L16.9061567,12.6640266 L16.8082752,12.6640266 L16.7100029,12.6640266 L10.0269004,12.6640266 L9.99837606,12.6640266 C9.974736,12.6640266 9.95226818,12.6682345 9.92921424,12.6701471 C9.89600094,12.6732074 9.86317838,12.6762676 9.83152806,12.6829619 C9.69945634,12.7110778 9.57988846,12.7699874 9.48532823,12.852805 C9.3548195,12.9692853 9.27256773,13.1305216 9.27256773,13.3053376 C9.27256773,13.6582212 9.59844883,13.9439709 9.99857143,13.9439709 L16.9112364,13.9439709 C17.3140942,13.9439709 17.6374355,13.6582212 17.6374355,13.3053376 C17.6374355,12.952454 17.3138988,12.6640266 16.9112364,12.6640266 L16.9112364,12.6640266 Z" id="Shape"></path>
                        <path d="M7.82564001,4.60852598 L7.82564001,0.978319584 L4.83312152,0.978319584 L4.83312152,2.96689998 L2.79929522,2.96689998 L2.79929522,4.60546574 L7.77738303,4.60546574 C7.79047298,4.60565701 7.80864261,4.60718712 7.82564001,4.60852598 L7.82564001,4.60852598 Z" id="Shape"></path>
                        <polygon id="Shape" points="15.0534406 2.96709124 13.0166837 2.96709124 13.0166837 0.978319584 10.0269004 0.978319584 10.0269004 4.60565701 15.0534406 4.60565701"></polygon>
                        <path d="M9.83152806,0.731970488 C9.86161541,0.749949382 9.89443796,0.76372045 9.92921424,0.772901161 C9.96047382,0.781125549 9.99290563,0.787054758 10.0269004,0.787054758 L13.0166837,0.787054758 L13.1143699,0.787054758 L13.2120561,0.787054758 L13.6549652,0.787054758 C13.8647951,0.787054758 14.0349645,0.617785387 14.0349645,0.4121757 C14.0349645,0.206757277 13.8647951,0.037296641 13.6549652,0.037296641 L10.0269004,0.037296641 C9.81707051,0.037296641 9.64670581,0.206757277 9.64670581,0.4121757 C9.64670581,0.547591196 9.72133805,0.665984124 9.83152806,0.731970488 L9.83152806,0.731970488 Z" id="Shape"></path>
                        <path d="M4.20910219,0.787054758 L4.63774916,0.787054758 L4.73543534,0.787054758 L4.83312152,0.787054758 L7.82564001,0.787054758 L7.83423639,0.787054758 C7.86510523,0.787054758 7.89460645,0.782655667 7.92332619,0.775770134 C7.95829784,0.767545746 7.99072966,0.754157208 8.02101237,0.737517168 C8.13784504,0.672869657 8.21697085,0.551607758 8.21697085,0.4121757 C8.21697085,0.206757277 8.04680152,0.037296641 7.83423639,0.037296641 L4.20910219,0.037296641 C3.99946765,0.037296641 3.82636773,0.206757277 3.82636773,0.4121757 C3.82617236,0.617785387 3.99946765,0.787054758 4.20910219,0.787054758 L4.20910219,0.787054758 Z" id="Shape"></path>
                        <path d="M8.02101237,12.7355597 C7.98955742,12.7215974 7.95732098,12.7089739 7.92332619,12.6990281 C7.89148049,12.6896561 7.85924405,12.6806667 7.82564001,12.67512 C7.78324421,12.6668956 7.73772244,12.6640266 7.69239606,12.6640266 L0.992491605,12.6640266 L0.894219306,12.6640266 L0.795947008,12.6640266 L0.782466315,12.6640266 C0.581037408,12.6640266 0.399731855,12.7363248 0.266292531,12.852805 C0.135783792,12.9692853 0.0535320275,13.1305216 0.0535320275,13.3053376 C0.0535320275,13.6582212 0.379608502,13.9439709 0.782270942,13.9439709 L7.69220068,13.9439709 C8.0950585,13.9439709 8.42133034,13.6582212 8.42133034,13.3053376 C8.42152572,13.055737 8.25858517,12.8417117 8.02101237,12.7355597 L8.02101237,12.7355597 Z" id="Shape"></path>
                        <path d="M9.83152806,9.19295259 L9.92921424,9.19295259 L10.0269004,9.19295259 L10.6139944,9.19295259 C10.8011611,9.19295259 10.954333,8.90682041 10.954333,8.55393681 C10.954333,8.20143573 10.8011611,7.91530355 10.6139944,7.91530355 L10.0269004,7.91530355 L9.92921424,7.91530355 L9.83152806,7.91530355 L8.02101237,7.91530355 L7.92332619,7.91530355 L7.82564001,7.91530355 L7.400119,7.91530355 C7.30653564,7.91530355 7.22135329,7.98779292 7.15922488,8.10140423 C7.09963631,8.21826704 7.05997572,8.37644305 7.05997572,8.55393681 C7.05997572,8.90682041 7.21295228,9.19295259 7.400119,9.19295259 L7.82564001,9.19295259 L7.92332619,9.19295259 L8.02101237,9.19295259 L9.83152806,9.19295259 L9.83152806,9.19295259 Z" id="Shape"></path>
                        <path d="M1.53679901,6.07342328 C1.54930284,6.07399707 1.56122055,6.07705731 1.57391976,6.07705731 L1.63468056,6.07705731 L1.73295286,6.07705731 L7.77757841,6.07705731 C7.79477117,6.07705731 7.8115732,6.07705731 7.82583538,6.0743796 C7.85924405,6.07189316 7.89128512,6.06519889 7.92313082,6.05812209 C7.95712561,6.0504715 7.98955742,6.03976067 8.02120774,6.02713719 C8.26014814,5.93226984 8.42992673,5.70581228 8.42992673,5.43861532 C8.42992673,5.17199216 8.26092963,4.94438701 8.0229661,4.84837207 C7.99072966,4.83536606 7.9579071,4.82446397 7.92352156,4.81643084 C7.89148049,4.80916278 7.85943943,4.80246851 7.82583538,4.79998207 C7.81176857,4.7971131 7.79477117,4.7971131 7.77757841,4.7971131 L2.79949059,4.7971131 L2.70180441,4.7971131 L2.60411823,4.7971131 L1.57411513,4.7971131 C1.3926142,4.7971131 1.23084589,4.8694112 1.11166875,4.98608274 C0.995422191,5.10256302 0.921571437,5.2609303 0.921571437,5.43861532 C0.921571437,5.77849292 1.19431126,6.05410553 1.53679901,6.07342328 L1.53679901,6.07342328 Z" id="Shape"></path>
                        <path d="M9.83152806,6.06864166 C9.85966168,6.07227569 9.88720918,6.07705731 9.91631967,6.07705731 L9.92921424,6.07705731 L10.0269004,6.07705731 L16.099855,6.07705731 L16.1170477,6.07705731 C16.1445952,6.07705731 16.1705798,6.07246696 16.1973458,6.06902419 C16.2303637,6.06500763 16.2622094,6.05888715 16.293469,6.05028024 C16.5671857,5.97453936 16.7693961,5.73067671 16.7693961,5.43842406 C16.7693961,5.08573172 16.477119,4.79692183 16.1170477,4.79692183 L15.2488129,4.79692183 L15.1511268,4.79692183 L15.0534406,4.79692183 L10.0269004,4.79692183 L9.92921424,4.79692183 L9.91631967,4.79692183 C9.88740456,4.79692183 9.85966168,4.80170345 9.83152806,4.80533748 C9.68617102,4.8242727 9.55370856,4.88796389 9.45387328,4.98570021 C9.33743135,5.10218049 9.26377597,5.26054777 9.26377597,5.43823279 C9.26397135,5.76261794 9.51189888,6.02771099 9.83152806,6.06864166 L9.83152806,6.06864166 Z" id="Shape"></path>
                    </g>
                </g>
            </g>
        </g>
    </g>
</svg>